<svg width="29" height="24" viewBox="0 0 29 24" fill="none" xmlns="http://www.w3.org/2000/svg">
  <path d="M16.1508 20.7285C16.1508 21.557 15.4792 22.2285 14.6508 22.2285C13.8224 22.2285 13.1508 21.557 13.1508 20.7285C13.1508 19.9001 13.8224 19.2285 14.6508 19.2285C15.4792 19.2285 16.1508 19.9001 16.1508 20.7285Z" fill="#BBBBBB"/>
  <path d="M9.65079 16.2285C13.5335 13.6441 15.7052 13.4609 19.6508 16.2285M5.15079 11.7285C12.8334 6.41081 16.6871 6.2742 24.6508 11.7285M0.650795 6.22854C8.71889 -0.687088 20.5577 -0.798339 28.1508 6.22853M16.1508 20.7285C16.1508 21.557 15.4792 22.2285 14.6508 22.2285C13.8224 22.2285 13.1508 21.557 13.1508 20.7285C13.1508 19.9001 13.8224 19.2285 14.6508 19.2285C15.4792 19.2285 16.1508 19.9001 16.1508 20.7285Z" stroke="#BBBBBB" stroke-width="2"/>
</svg>
